<svg width="18" height="16" viewBox="0 0 18 16" fill="none" xmlns="http://www.w3.org/2000/svg">
<path d="M8.97218 11.575C8.83291 11.575 8.70234 11.554 8.58048 11.512C8.45862 11.4707 8.34547 11.4 8.24101 11.3L4.48072 7.7C4.28922 7.51667 4.19347 7.28333 4.19347 7C4.19347 6.71667 4.28922 6.48333 4.48072 6.3C4.67221 6.11667 4.92011 6.02067 5.22442 6.012C5.52942 6.004 5.77767 6.09167 5.96917 6.275L7.92765 8.15V1C7.92765 0.716667 8.02793 0.479 8.22848 0.287C8.42833 0.0956668 8.67623 0 8.97218 0C9.26813 0 9.51638 0.0956668 9.71693 0.287C9.91678 0.479 10.0167 0.716667 10.0167 1V8.15L11.9752 6.275C12.1667 6.09167 12.4149 6.004 12.7199 6.012C13.0242 6.02067 13.2721 6.11667 13.4636 6.3C13.6551 6.48333 13.7509 6.71667 13.7509 7C13.7509 7.28333 13.6551 7.51667 13.4636 7.7L9.70335 11.3C9.5989 11.4 9.48574 11.4707 9.36388 11.512C9.24202 11.554 9.11145 11.575 8.97218 11.575ZM2.70502 16C2.13053 16 1.63891 15.8043 1.23015 15.413C0.820694 15.021 0.615967 14.55 0.615967 14V12C0.615967 11.7167 0.715893 11.479 0.915746 11.287C1.1163 11.0957 1.36454 11 1.66049 11C1.95644 11 2.20469 11.0957 2.40524 11.287C2.60509 11.479 2.70502 11.7167 2.70502 12V14H15.2393V12C15.2393 11.7167 15.3396 11.479 15.5402 11.287C15.74 11.0957 15.9879 11 16.2839 11C16.5798 11 16.8277 11.0957 17.0276 11.287C17.2281 11.479 17.3284 11.7167 17.3284 12V14C17.3284 14.55 17.124 15.021 16.7153 15.413C16.3058 15.8043 15.8138 16 15.2393 16H2.70502Z" fill="white"/>
</svg>
