<svg width="18" height="21" viewBox="0 0 18 21" fill="none" xmlns="http://www.w3.org/2000/svg">
<path d="M8.72727 4.95833V0H0.935065C0.416883 0 0 0.390104 0 0.875V17.7917C0 18.2766 0.416883 18.6667 0.935065 18.6667H14.026C14.5442 18.6667 14.961 18.2766 14.961 17.7917V5.83333H9.66234C9.14805 5.83333 8.72727 5.43958 8.72727 4.95833ZM14.961 4.44427V4.66667H9.97403V0H10.2117C10.461 0 10.6987 0.0911458 10.874 0.255208L14.6883 3.82812C14.8636 3.99219 14.961 4.21458 14.961 4.44427Z" fill="white"/>
<path d="M13.8471 13C11.7219 13 10 14.6113 10 16.6C10 18.5887 11.7219 20.2 13.8471 20.2C15.9723 20.2 17.6942 18.5887 17.6942 16.6C17.6942 14.6113 15.9723 13 13.8471 13Z" fill="#888DA9"/>
<path d="M15.6271 16.2768L15.8172 16.4547C15.8977 16.5301 15.8977 16.6519 15.8172 16.7264L14.1531 18.2845C14.0726 18.3598 13.9424 18.3598 13.8627 18.2845L12.1977 16.7264C12.1172 16.6511 12.1172 16.5293 12.1977 16.4547L12.3879 16.2768C12.4692 16.2007 12.602 16.2023 12.6816 16.28L13.6649 17.2458V14.9424C13.6649 14.8358 13.7565 14.75 13.8704 14.75H14.1445C14.2584 14.75 14.3501 14.8358 14.3501 14.9424V17.2458L15.3333 16.28C15.4129 16.2015 15.5457 16.1999 15.6271 16.2768Z" fill="white"/>
</svg>
