<svg width="16" height="14" viewBox="0 0 16 14" fill="none" xmlns="http://www.w3.org/2000/svg">
<path d="M12.4356 11.6583C12.863 11.6583 13.229 11.5061 13.5334 11.2017C13.8378 10.8973 13.99 10.5314 13.99 10.1039C13.99 9.67643 13.8378 9.31048 13.5334 9.00607C13.229 8.70166 12.863 8.54945 12.4356 8.54945C12.0081 8.54945 11.6422 8.70166 11.3377 9.00607C11.0333 9.31048 10.8811 9.67643 10.8811 10.1039C10.8811 10.5314 11.0333 10.8973 11.3377 11.2017C11.6422 11.5061 12.0081 11.6583 12.4356 11.6583ZM12.2801 13.99C12.0988 13.99 11.9401 13.9317 11.8041 13.8151C11.6681 13.6986 11.5806 13.5496 11.5418 13.3682L11.4252 12.8242C11.2697 12.7594 11.124 12.6914 10.988 12.6202C10.852 12.5489 10.7127 12.4615 10.5702 12.3578L10.0067 12.5327C9.83835 12.5845 9.67319 12.5781 9.51127 12.5133C9.34935 12.4485 9.22305 12.3449 9.13237 12.2024L8.97693 11.9304C8.88625 11.7749 8.85387 11.6065 8.87977 11.4252C8.90568 11.2438 8.98988 11.0949 9.13237 10.9783L9.55984 10.6091C9.53394 10.4536 9.52098 10.2853 9.52098 10.1039C9.52098 9.92255 9.53394 9.75415 9.55984 9.5987L9.13237 9.22952C8.98988 9.11294 8.90568 8.96721 8.87977 8.79234C8.85387 8.61746 8.88625 8.4523 8.97693 8.29686L9.1518 8.0054C9.24248 7.86291 9.36554 7.75928 9.52098 7.69451C9.67643 7.62974 9.83835 7.62326 10.0067 7.67508L10.5702 7.84995C10.7127 7.74632 10.852 7.65889 10.988 7.58764C11.124 7.51639 11.2697 7.44839 11.4252 7.38362L11.5418 6.82013C11.5806 6.63878 11.6681 6.49305 11.8041 6.38294C11.9401 6.27284 12.0988 6.21778 12.2801 6.21778H12.591C12.7724 6.21778 12.931 6.27608 13.0671 6.39266C13.2031 6.50924 13.2905 6.65821 13.3294 6.83956L13.446 7.38362C13.6014 7.44839 13.7471 7.51639 13.8831 7.58764C14.0192 7.65889 14.1584 7.74632 14.3009 7.84995L14.8644 7.67508C15.0328 7.62326 15.1979 7.62974 15.3599 7.69451C15.5218 7.75928 15.6481 7.86291 15.7388 8.0054L15.8942 8.27743C15.9849 8.43287 16.0173 8.60127 15.9914 8.78262C15.9655 8.96397 15.8813 9.11294 15.7388 9.22952L15.3113 9.5987C15.3372 9.75415 15.3502 9.92255 15.3502 10.1039C15.3502 10.2853 15.3372 10.4536 15.3113 10.6091L15.7388 10.9783C15.8813 11.0949 15.9655 11.2406 15.9914 11.4155C16.0173 11.5903 15.9849 11.7555 15.8942 11.9109L15.7193 12.2024C15.6287 12.3449 15.5056 12.4485 15.3502 12.5133C15.1947 12.5781 15.0328 12.5845 14.8644 12.5327L14.3009 12.3578C14.1584 12.4615 14.0192 12.5489 13.8831 12.6202C13.7471 12.6914 13.6014 12.7594 13.446 12.8242L13.3294 13.3877C13.2905 13.569 13.2031 13.7147 13.0671 13.8249C12.931 13.935 12.7724 13.99 12.591 13.99H12.2801ZM1.55445 12.4356C1.12697 12.4356 0.761031 12.2834 0.456619 11.979C0.152206 11.6745 0 11.3086 0 10.8811V1.55445C0 1.12697 0.152206 0.761031 0.456619 0.456619C0.761031 0.152206 1.12697 0 1.55445 0H5.57658C5.78383 0 5.98138 0.0388612 6.16921 0.116583C6.35704 0.194306 6.5222 0.304412 6.66469 0.446903L7.77223 1.55445H13.99C14.4175 1.55445 14.7834 1.70665 15.0878 2.01106C15.3923 2.31548 15.5445 2.68142 15.5445 3.10889V5.63487C15.0911 5.31102 14.5988 5.06814 14.0677 4.90622C13.5366 4.7443 12.9926 4.66334 12.4356 4.66334C10.92 4.66334 9.63433 5.1912 8.5786 6.24693C7.52287 7.30266 6.99501 8.58832 6.99501 10.1039C6.99501 10.5184 7.03711 10.92 7.12131 11.3086C7.20551 11.6972 7.33828 12.0729 7.51963 12.4356H1.55445Z" fill="black"/>
</svg>
