<svg width="18" height="18" viewBox="0 0 18 18" fill="none" xmlns="http://www.w3.org/2000/svg">
<path d="M3.53055 18C2.95606 18 2.46444 17.8043 2.05568 17.413C1.64623 17.021 1.4415 16.55 1.4415 16V3C1.14555 3 0.897301 2.90433 0.696752 2.713C0.496899 2.521 0.396973 2.28333 0.396973 2C0.396973 1.71667 0.496899 1.479 0.696752 1.287C0.897301 1.09567 1.14555 1 1.4415 1H5.61961C5.61961 0.716667 5.71988 0.479 5.92043 0.287C6.12028 0.0956666 6.36818 0 6.66413 0H10.8422C11.1382 0 11.3864 0.0956666 11.587 0.287C11.7868 0.479 11.8868 0.716667 11.8868 1H16.0649C16.3608 1 16.6087 1.09567 16.8086 1.287C17.0091 1.479 17.1094 1.71667 17.1094 2C17.1094 2.28333 17.0091 2.521 16.8086 2.713C16.6087 2.90433 16.3608 3 16.0649 3V16C16.0649 16.55 15.8605 17.021 15.4517 17.413C15.0423 17.8043 14.5503 18 13.9758 18H3.53055ZM5.61961 13C5.61961 13.2833 5.71988 13.5207 5.92043 13.712C6.12028 13.904 6.36818 14 6.66413 14C6.96008 14 7.20833 13.904 7.40888 13.712C7.60873 13.5207 7.70866 13.2833 7.70866 13V6C7.70866 5.71667 7.60873 5.479 7.40888 5.287C7.20833 5.09567 6.96008 5 6.66413 5C6.36818 5 6.12028 5.09567 5.92043 5.287C5.71988 5.479 5.61961 5.71667 5.61961 6V13ZM9.79771 13C9.79771 13.2833 9.89799 13.5207 10.0985 13.712C10.2984 13.904 10.5463 14 10.8422 14C11.1382 14 11.3864 13.904 11.587 13.712C11.7868 13.5207 11.8868 13.2833 11.8868 13V6C11.8868 5.71667 11.7868 5.479 11.587 5.287C11.3864 5.09567 11.1382 5 10.8422 5C10.5463 5 10.2984 5.09567 10.0985 5.287C9.89799 5.479 9.79771 5.71667 9.79771 6V13Z" fill="white"/>
</svg>
